<svg version="1.2" xmlns="http://www.w3.org/2000/svg" viewBox="0 0 28 32" width="28" height="32">
	<title>delivery-svg</title>
	<style>
		.s0 { fill: #7eb101 } 
	</style>
	<path id="Layer" fill-rule="evenodd" class="s0" d="m27.4 4.8q0.3 4.5-1.2 8.2-1.4 3.8-4.7 7.1l-0.1 0.1 0.7 3.7q0.1 0.5 0 0.9-0.2 0.5-0.6 0.9l-5.7 5.7-2.8-6.6-5.7-5.7-6.6-2.8 5.8-5.7q0.3-0.4 0.8-0.5 0.5-0.2 1-0.1l3.6 0.8q0.1-0.1 0.1-0.1 0 0 0.1 0 3.3-3.3 7-4.8 3.7-1.4 8.3-1.1zm-18 13.5l4.4 4.5q1.9-0.9 3.6-2 1.6-1.1 2.7-2.1 2.7-2.7 3.9-5.6 1.3-2.8 1.4-6.4-3.6 0.1-6.4 1.4-2.8 1.3-5.5 4-1.1 1-2.2 2.7-1.1 1.6-1.9 3.5zm7.6-3.2q-0.7-0.6-0.7-1.6 0-1 0.7-1.7 0.7-0.6 1.6-0.6 1 0 1.7 0.6 0.7 0.7 0.7 1.7 0 1-0.7 1.6-0.7 0.7-1.7 0.7-0.9 0-1.6-0.7zm-0.5 12.8l3.6-3.6-0.5-2.7q-1.1 0.8-2.2 1.5-1.2 0.7-2.4 1.3zm-12.3-12.3l3.6 1.5q0.6-1.2 1.3-2.4 0.6-1.1 1.4-2.2l-2.6-0.5zm-1.3 7.5q1.2-1.2 2.9-1.2 1.6 0 2.8 1.2 1.2 1.1 1.2 2.8-0.1 1.7-1.2 2.9-0.9 0.8-2.7 1.4-1.8 0.6-5.5 1.1 0.5-3.7 1.1-5.5 0.5-1.8 1.4-2.7zm1.4 1.4q-0.5 0.5-0.8 1.6-0.4 1.1-0.7 2.7 1.7-0.2 2.8-0.6 1-0.4 1.5-0.8 0.7-0.6 0.7-1.4 0-0.9-0.6-1.5-0.6-0.6-1.5-0.6-0.8 0-1.4 0.6z"/>
</svg>