<svg version="1.2" xmlns="http://www.w3.org/2000/svg" viewBox="0 0 22 32" width="22" height="32">
	<title>order-svg</title>
	<style>
		.s0 { fill: #7eb101 } 
	</style>
	<path id="Layer" fill-rule="evenodd" class="s0" d="m10.5 3.3q3 0 5.2 2.1 2.1 2.2 2.1 5.2 0 1.7-0.7 3.3-0.8 1.5-2.1 2.6 0 0 0 0 0.1 0 0.3 0.1l4.9 2.4q0.8 0.4 1.2 1.2 0.4 0.8 0.2 1.7l-1.2 7.2q-0.1 1-0.9 1.6-0.8 0.6-1.7 0.6h-8.6q-0.5 0-1-0.2-0.5-0.2-0.9-0.6l-6.9-6.8 1.9-2q0.5-0.4 1.1-0.7 0.5-0.2 1.2-0.1l2.6 0.6v-4.3q-1.9-1-3-2.7-1-1.8-1-3.9 0-3 2.1-5.2 2.2-2.1 5.2-2.1zm4.8 9.6q0.5-1.1 0.5-2.3 0-2.2-1.5-3.7-1.6-1.6-3.8-1.6-2.2 0-3.8 1.6-1.5 1.5-1.5 3.7 0 1.2 0.5 2.3 0.5 1.1 1.5 1.9v-4.1q0-1.4 0.9-2.4 1-1 2.4-1 1.4 0 2.4 1 0.9 1 0.9 2.4v4.1q1-0.8 1.5-1.9zm-6.3 16.4h9.3l1.5-8.3-6.1-3h-1.9v-7.3q0-0.6-0.3-1-0.4-0.4-1-0.4-0.6 0-1 0.4-0.3 0.4-0.3 1v13.3l-5.2-1.1-0.7 0.7zm9.3 0h-9.3z"/>
</svg>