<svg version="1.2" xmlns="http://www.w3.org/2000/svg" width="28" height="32"><path id="Layer" fill-rule="evenodd" d="M27.4 4.8q.3 4.5-1.2 8.2-1.4 3.8-4.7 7.1l-.1.1.7 3.7q.1.5 0 .9-.2.5-.6.9l-5.7 5.7-2.8-6.6-5.7-5.7-6.6-2.8 5.8-5.7q.3-.4.8-.5.5-.2 1-.1l3.6.8.1-.1h.1q3.3-3.3 7-4.8 3.7-1.4 8.3-1.1zm-18 13.5 4.4 4.5q1.9-.9 3.6-2 1.6-1.1 2.7-2.1 2.7-2.7 3.9-5.6 1.3-2.8 1.4-6.4-3.6.1-6.4 1.4-2.8 1.3-5.5 4-1.1 1-2.2 2.7-1.1 1.6-1.9 3.5zm7.6-3.2q-.7-.6-.7-1.6t.7-1.7q.7-.6 1.6-.6 1 0 1.7.6.7.7.7 1.7t-.7 1.6q-.7.7-1.7.7-.9 0-1.6-.7zm-.5 12.8 3.6-3.6-.5-2.7q-1.1.8-2.2 1.5-1.2.7-2.4 1.3zM4.2 15.6l3.6 1.5q.6-1.2 1.3-2.4.6-1.1 1.4-2.2L7.9 12zm-1.3 7.5q1.2-1.2 2.9-1.2 1.6 0 2.8 1.2 1.2 1.1 1.2 2.8-.1 1.7-1.2 2.9-.9.8-2.7 1.4-1.8.6-5.5 1.1.5-3.7 1.1-5.5.5-1.8 1.4-2.7zm1.4 1.4q-.5.5-.8 1.6-.4 1.1-.7 2.7 1.7-.2 2.8-.6 1-.4 1.5-.8.7-.6.7-1.4 0-.9-.6-1.5t-1.5-.6q-.8 0-1.4.6z" style="fill:#7eb101"/></svg>