<svg version="1.2" xmlns="http://www.w3.org/2000/svg" width="22" height="32"><path id="Layer" fill-rule="evenodd" d="M10.5 3.3q3 0 5.2 2.1 2.1 2.2 2.1 5.2 0 1.7-.7 3.3-.8 1.5-2.1 2.6.1 0 .3.1l4.9 2.4q.8.4 1.2 1.2.4.8.2 1.7l-1.2 7.2q-.1 1-.9 1.6-.8.6-1.7.6H9.2q-.5 0-1-.2t-.9-.6L.4 23.7l1.9-2q.5-.4 1.1-.7.5-.2 1.2-.1l2.6.6v-4.3q-1.9-1-3-2.7-1-1.8-1-3.9 0-3 2.1-5.2 2.2-2.1 5.2-2.1zm4.8 9.6q.5-1.1.5-2.3 0-2.2-1.5-3.7-1.6-1.6-3.8-1.6-2.2 0-3.8 1.6-1.5 1.5-1.5 3.7 0 1.2.5 2.3.5 1.1 1.5 1.9v-4.1q0-1.4.9-2.4 1-1 2.4-1t2.4 1q.9 1 .9 2.4v4.1q1-.8 1.5-1.9zM9 29.3h9.3l1.5-8.3-6.1-3h-1.9v-7.3q0-.6-.3-1-.4-.4-1-.4t-1 .4q-.3.4-.3 1V24L4 22.9l-.7.7zm9.3 0H9z" style="fill:#7eb101"/></svg>